<svg xmlns="http://www.w3.org/2000/svg" version="1.1" xmlns:xlink="http://www.w3.org/1999/xlink" xmlns:svgjs="http://svgjs.dev/svgjs" width="1000" height="623" viewBox="0 0 1000 623"><g transform="matrix(1,0,0,1,-0.6060606060606233,0.2522267206477409)"><svg viewBox="0 0 396 247" data-background-color="#ffffff" preserveAspectRatio="xMidYMid meet" height="623" width="1000" xmlns="http://www.w3.org/2000/svg" xmlns:xlink="http://www.w3.org/1999/xlink"><g id="tight-bounds" transform="matrix(1,0,0,1,0.2400000000000091,-0.09999999999999432)"><svg viewBox="0 0 395.52 247.2" height="247.2" width="395.52"><g><svg></svg></g><g><svg viewBox="0 0 395.52 247.2" height="247.2" width="395.52"><g transform="matrix(1,0,0,1,39.55199999999999,89.05414323297282)"><svg viewBox="0 0 316.416 69.09171353405436" height="69.09171353405436" width="316.416"><g><svg viewBox="0 0 316.416 69.09171353405436" height="69.09171353405436" width="316.416"><g><svg viewBox="0 0 316.416 69.09171353405436" height="69.09171353405436" width="316.416"><g><svg viewBox="0 0 316.416 69.09171353405436" height="69.09171353405436" width="316.416"><g id="textblocktransform"><svg viewBox="0 0 316.416 69.09171353405436" height="69.09171353405436" width="316.416" id="textblock"><g><svg viewBox="0 0 316.416 69.09171353405436" height="69.09171353405436" width="316.416"><g transform="matrix(1,0,0,1,0,0)"><svg width="316.416" viewBox="1.5 -36.95000076293945 171.02999877929688 37.35000228881836" height="69.09171353405436" data-palette-color="#77d4fc"><path d="M16.6-33.65L16.6-10.2Q16.6-5.35 14.03-2.65 11.45 0.05 6.85 0.05L6.85 0.05Q3.4 0.05 1.5-0.95L1.5-0.95 1.5-7.75Q3.35-6.6 5.35-6.6L5.35-6.6Q8.9-6.6 8.9-10.4L8.9-10.4 8.9-33.65 16.6-33.65ZM46.2-12.8L46.2-12.8Q46.2-7.05 42.92-3.33 39.65 0.4 33.8 0.4L33.8 0.4Q27.85 0.4 24.6-3.18 21.35-6.75 21.35-12.35L21.35-12.35Q21.35-18.2 24.75-21.98 28.15-25.75 33.8-25.75L33.8-25.75Q39.7-25.75 42.95-22.1 46.2-18.45 46.2-12.8ZM30.15-17.95Q28.95-15.9 28.95-12.65 28.95-9.4 30.17-7.33 31.4-5.25 33.85-5.25L33.85-5.25Q36.25-5.25 37.42-7.28 38.6-9.3 38.6-12.55L38.6-12.55Q38.6-20 33.75-20L33.75-20Q31.35-20 30.15-17.95ZM58.25-3.95L58.25 0 50.95 0 50.95-35.35 58.25-35.35 58.25-21.45Q60.85-25.65 65.8-25.65L65.8-25.65Q70.55-25.65 73.65-22.2 76.75-18.75 76.75-12.75L76.75-12.75Q76.75-7.4 73.77-3.55 70.8 0.3 65.85 0.3L65.85 0.3Q60.8 0.3 58.25-3.95L58.25-3.95ZM58.25-12.95L58.25-12.95Q58.25-9.7 59.8-7.75 61.35-5.8 63.85-5.8L63.85-5.8Q66.15-5.8 67.75-7.68 69.35-9.55 69.35-12.6L69.35-12.6Q69.35-15.9 67.77-17.75 66.2-19.6 63.9-19.6 61.6-19.6 59.92-17.85 58.25-16.1 58.25-12.95ZM101.89-6.75L101.89 0 81.74 0 81.74-33.7 89.44-33.7 89.44-6.75 101.89-6.75ZM113.44-25.35L113.44 0 106.14 0 106.14-25.35 113.44-25.35ZM112.79-35.7Q114.04-34.45 114.04-32.7 114.04-30.95 112.79-29.7 111.54-28.45 109.79-28.45 108.04-28.45 106.79-29.7 105.54-30.95 105.54-32.7 105.54-34.45 106.79-35.7 108.04-36.95 109.79-36.95 111.54-36.95 112.79-35.7ZM142.94-16.45L142.94 0 135.64 0 135.64-15.1Q135.64-17.35 134.59-18.53 133.54-19.7 131.64-19.7L131.64-19.7Q129.64-19.7 128.31-18.13 126.99-16.55 126.99-13.4L126.99-13.4 126.99 0 119.69 0 119.69-25.35 126.99-25.35 126.99-21.05Q127.94-23.15 129.91-24.38 131.89-25.6 134.64-25.6L134.64-25.6Q138.54-25.6 140.74-23.28 142.94-20.95 142.94-16.45L142.94-16.45ZM155.99-12.45L155.99 0 148.69 0 148.69-34.5 155.99-34.5 155.99-14 163.99-25.35 172.38-25.35 163.59-13.2 172.53 0 164.09 0 155.99-12.45Z" opacity="1" transform="matrix(1,0,0,1,0,0)" fill="#77d4fc" class="undefined-text-0" data-fill-palette-color="primary" id="text-0"></path></svg></g></svg></g></svg></g></svg></g><g></g></svg></g></svg></g></svg></g><g mask="url(#60813dcf-b3b3-4da2-aa83-e948743011e6)"><g transform="matrix(3.356467157928662, 0, 0, 3.356467157928662, 75.17321363108437, 1)"><svg xmlns="http://www.w3.org/2000/svg" xmlns:xlink="http://www.w3.org/1999/xlink" version="1.1" x="0" y="0" viewBox="13.4818754196167 13.473999977111816 73.04512786865234 73.0530014038086" enable-background="new 0 0 100 100" xml:space="preserve" height="73.0530014038086" width="73.04512786865234" class="icon-none" data-fill-palette-color="accent" id="none"><g fill="#4b91f1" data-fill-palette-color="accent"><path d="M81.842 18.16c-3.021-3.022-7.038-4.686-11.312-4.686-4.272 0-8.29 1.664-11.312 4.686l-14.75 14.752c-1.562 1.562-1.562 4.095 0 5.657 1.562 1.562 4.096 1.562 5.656 0l14.752-14.752c1.51-1.51 3.518-2.342 5.653-2.342s4.144 0.832 5.654 2.343c1.51 1.51 2.342 3.517 2.342 5.653s-0.832 4.144-2.342 5.654L61.433 49.875c-1.562 1.562-1.562 4.095 0 5.657 0.781 0.781 1.805 1.172 2.828 1.172 1.022 0 2.048-0.391 2.828-1.172L81.841 40.78c3.021-3.021 4.686-7.038 4.686-11.311C86.526 25.196 84.862 21.18 81.842 18.16z" fill="#4b91f1" data-fill-palette-color="accent"></path><path d="M49.875 61.433L35.122 76.185c-1.51 1.51-3.517 2.342-5.653 2.342-2.135 0-4.143-0.832-5.654-2.342-3.116-3.117-3.116-8.19 0-11.309l14.752-14.751c1.563-1.562 1.563-4.095 0-5.657-1.56-1.562-4.095-1.562-5.655 0L18.158 59.22c-6.235 6.237-6.235 16.385 0.001 22.621 3.021 3.021 7.038 4.686 11.31 4.686 4.273 0 8.29-1.664 11.311-4.686l14.752-14.752c1.562-1.562 1.562-4.095 0-5.656C53.971 59.87 51.436 59.87 49.875 61.433z" fill="#4b91f1" data-fill-palette-color="accent"></path><path d="M35.985 64.016c0.78 0.781 1.805 1.172 2.828 1.172s2.048-0.391 2.828-1.172l22.374-22.374c1.562-1.562 1.562-4.095 0-5.657-1.561-1.562-4.096-1.562-5.656 0L35.985 58.359C34.423 59.921 34.423 62.454 35.985 64.016z" fill="#4b91f1" data-fill-palette-color="accent"></path></g></svg></g></g></svg></g><defs><mask id="60813dcf-b3b3-4da2-aa83-e948743011e6"><rect width="640" height="400" fill="white"></rect><rect width="348.05760000000004" height="101.7135042625852" fill="black" y="72.74324786870739" x="23.731199999999973" id="transform-me"></rect></mask></defs></svg><rect width="395.52" height="247.2" fill="none" stroke="none" visibility="hidden"></rect></g></svg></g></svg>